<svg xmlns="http://www.w3.org/2000/svg" viewBox="0 0 800 1000" width="800" height="1000"><defs><linearGradient id="v" x1="0" y1="0" x2="1" y2="0"><stop offset="0" stop-color="#a5825b"/><stop offset=".35" stop-color="#e8d3b6"/><stop offset=".7" stop-color="#c9a77f"/><stop offset="1" stop-color="#a5825b"/></linearGradient>
    <linearGradient id="bg" x1="0" y1="0" x2="0" y2="1"><stop offset="0" stop-color="#efe6da"/><stop offset="1" stop-color="#ddd0bf"/></linearGradient></defs><rect width="800" height="1000" fill="url(#bg)"/><rect y="720" width="800" height="280" fill="#b89b7a"/><rect y="720" width="800" height="14" fill="#9c7f5f"/><rect x="560" y="120" width="180" height="260" fill="#fff" opacity=".35"/><path d="M385 300 Q 300 150 260 80" stroke="#5f7d58" stroke-width="7" fill="none"/><ellipse cx="260" cy="80" rx="34" ry="16" fill="#5f7d58" transform="rotate(-30 260 80)"/><path d="M400 300 Q 360 130 370 90" stroke="#6f8f66" stroke-width="7" fill="none"/><ellipse cx="370" cy="90" rx="34" ry="16" fill="#6f8f66" transform="rotate(0 370 90)"/><path d="M415 300 Q 420 110 480 100" stroke="#4f6b48" stroke-width="7" fill="none"/><ellipse cx="480" cy="100" rx="34" ry="16" fill="#4f6b48" transform="rotate(30 480 100)"/><ellipse cx="400" cy="725" rx="190" ry="24" fill="#000" opacity=".12"/><g transform="translate(0 25)"><path d="M340 210 Q320 260 350 300 Q240 380 250 520 Q262 660 400 690 Q538 660 550 520 Q560 380 450 300 Q480 260 460 210Z" fill="url(#v)"/><path d="M340 210 Q320 260 350 300 Q240 380 250 520 Q262 660 400 690 Q538 660 550 520 Q560 380 450 300 Q480 260 460 210Z" fill="none" stroke="#fff" stroke-opacity=".18" stroke-width="3"/></g></svg>
