<svg xmlns="http://www.w3.org/2000/svg" viewBox="0 0 800 1000" width="800" height="1000"><defs><linearGradient id="v" x1="0" y1="0" x2="1" y2="0"><stop offset="0" stop-color="#6b7f62"/><stop offset=".35" stop-color="#c7d3c0"/><stop offset=".7" stop-color="#94a88a"/><stop offset="1" stop-color="#6b7f62"/></linearGradient>
    <linearGradient id="bg" x1="0" y1="0" x2="0" y2="1"><stop offset="0" stop-color="#f4f1ec"/><stop offset="1" stop-color="#e7e2da"/></linearGradient></defs><rect width="800" height="1000" fill="url(#bg)"/><ellipse cx="400" cy="700" rx="190" ry="24" fill="#000" opacity=".12"/><g transform="translate(0 0)"><path d="M340 210 Q320 260 350 300 Q240 380 250 520 Q262 660 400 690 Q538 660 550 520 Q560 380 450 300 Q480 260 460 210Z" fill="url(#v)"/><path d="M340 210 Q320 260 350 300 Q240 380 250 520 Q262 660 400 690 Q538 660 550 520 Q560 380 450 300 Q480 260 460 210Z" fill="none" stroke="#fff" stroke-opacity=".18" stroke-width="3"/></g></svg>
