<svg xmlns="http://www.w3.org/2000/svg" viewBox="0 0 900 900" width="900" height="900"><defs><radialGradient id="p" cx=".45" cy=".4" r=".65"><stop offset="0" stop-color="#f7f3ec"/><stop offset=".75" stop-color="#e6dfd3"/><stop offset="1" stop-color="#cfc6b8"/></radialGradient>
    <radialGradient id="f" cx=".4" cy=".35" r=".7"><stop offset="0" stop-color="#d65a6b"/><stop offset="1" stop-color="#8e2b3a"/></radialGradient>
    <linearGradient id="t" x1="0" y1="0" x2="1" y2="1"><stop offset="0" stop-color="#3a2a20"/><stop offset="1" stop-color="#1c1410"/></linearGradient></defs><rect width="900" height="900" fill="url(#t)"/><path d="M0 27.8367 C 300 40, 600 -30, 900 6.4644" stroke="#ffffff" stroke-opacity=".04" stroke-width="3" fill="none"/><path d="M0 119.03 C 300 150, 600 80, 900 134.7584" stroke="#ffffff" stroke-opacity=".04" stroke-width="3" fill="none"/><path d="M0 234.0724 C 300 260, 600 190, 900 222.5968" stroke="#ffffff" stroke-opacity=".04" stroke-width="3" fill="none"/><path d="M0 345.2931 C 300 370, 600 300, 900 354.2223" stroke="#ffffff" stroke-opacity=".04" stroke-width="3" fill="none"/><path d="M0 454.1024 C 300 480, 600 410, 900 454.9427" stroke="#ffffff" stroke-opacity=".04" stroke-width="3" fill="none"/><path d="M0 573.7615 C 300 590, 600 520, 900 579.8587" stroke="#ffffff" stroke-opacity=".04" stroke-width="3" fill="none"/><path d="M0 661.2696 C 300 700, 600 630, 900 672.2658" stroke="#ffffff" stroke-opacity=".04" stroke-width="3" fill="none"/><path d="M0 778.5293 C 300 810, 600 740, 900 780.872" stroke="#ffffff" stroke-opacity=".04" stroke-width="3" fill="none"/><path d="M0 883.3597 C 300 920, 600 850, 900 899.3839" stroke="#ffffff" stroke-opacity=".04" stroke-width="3" fill="none"/><ellipse cx="460" cy="470" rx="350" ry="350" fill="#000" opacity=".35"/><circle cx="450" cy="450" r="340" fill="url(#p)"/><circle cx="450" cy="450" r="250" fill="none" stroke="#000" stroke-opacity=".05" stroke-width="4"/><path d="M302.734 520 Q 330 334.9768 470 330 Q 600 340 590 480 Q 570 600 450 600 Q 330 600 329.0168 520Z" fill="url(#f)"/><path d="M360 470 Q 450 420 560 470" stroke="#000" stroke-opacity=".25" stroke-width="10" stroke-linecap="round" fill="none"/><circle cx="380.0796" cy="586.242" r="7.7988" fill="#e7d9b0" opacity=".95"/><circle cx="333.006" cy="450.7052" r="10.590240000000001" fill="#e7d9b0" opacity=".95"/><circle cx="414.122" cy="338.6884" r="12.88644" fill="#e7d9b0" opacity=".95"/><circle cx="380.6172" cy="334.7236" r="16.84932" fill="#e7d9b0" opacity=".95"/><circle cx="586.5964" cy="470.4424" r="9.00192" fill="#e7d9b0" opacity=".95"/><circle cx="393.0716" cy="603.2716" r="7.74528" fill="#e7d9b0" opacity=".95"/><circle cx="350.0076" cy="520.3608" r="12.1014" fill="#e7d9b0" opacity=".95"/><circle cx="580.5596" cy="377.7008" r="9.90216" fill="#e7d9b0" opacity=".95"/><circle cx="344.4692" cy="362.9924" r="8.69172" fill="#e7d9b0" opacity=".95"/><circle cx="602.9136000000001" cy="326.23199999999997" r="2.93276" fill="#d65a6b" opacity=".8"/><circle cx="616.554" cy="415.4472" r="2.14625" fill="#fff" opacity=".8"/><circle cx="309.3156" cy="473.1048" r="3.91373" fill="#e7d9b0" opacity=".8"/><circle cx="403.0956" cy="451.314" r="2.13377" fill="#e7d9b0" opacity=".8"/><circle cx="526.1364" cy="483.426" r="3.58247" fill="#fff" opacity=".8"/><circle cx="346.8924" cy="272.196" r="2.97248" fill="#e7d9b0" opacity=".8"/><circle cx="608.508" cy="432.93240000000003" r="4.75694" fill="#e7d9b0" opacity=".8"/><circle cx="455.7744" cy="610.8192" r="2.38235" fill="#d65a6b" opacity=".8"/><circle cx="430.36199999999997" cy="381.9672" r="3.91277" fill="#fff" opacity=".8"/><circle cx="505.0836" cy="282.2436" r="4.77275" fill="#e7d9b0" opacity=".8"/><circle cx="336.5568" cy="471.9348" r="4.08875" fill="#fff" opacity=".8"/><circle cx="469.4184" cy="293.15160000000003" r="2.54429" fill="#d65a6b" opacity=".8"/><circle cx="397.59839999999997" cy="594.1764000000001" r="3.5386100000000003" fill="#d65a6b" opacity=".8"/><circle cx="541.7136" cy="326.4876" r="4.26116" fill="#e7d9b0" opacity=".8"/></svg>
