<svg xmlns="http://www.w3.org/2000/svg" viewBox="0 0 900 900" width="900" height="900"><defs><radialGradient id="p" cx=".45" cy=".4" r=".65"><stop offset="0" stop-color="#f7f3ec"/><stop offset=".75" stop-color="#e6dfd3"/><stop offset="1" stop-color="#cfc6b8"/></radialGradient>
    <radialGradient id="f" cx=".4" cy=".35" r=".7"><stop offset="0" stop-color="#7aa15a"/><stop offset="1" stop-color="#2f5a3a"/></radialGradient>
    <linearGradient id="t" x1="0" y1="0" x2="1" y2="1"><stop offset="0" stop-color="#3a2a20"/><stop offset="1" stop-color="#1c1410"/></linearGradient></defs><rect width="900" height="900" fill="url(#t)"/><path d="M0 2.2557 C 300 40, 600 -30, 900 23.6106" stroke="#ffffff" stroke-opacity=".04" stroke-width="3" fill="none"/><path d="M0 115.53229999999999 C 300 150, 600 80, 900 120.0842" stroke="#ffffff" stroke-opacity=".04" stroke-width="3" fill="none"/><path d="M0 221.2585 C 300 260, 600 190, 900 249.7507" stroke="#ffffff" stroke-opacity=".04" stroke-width="3" fill="none"/><path d="M0 348.8694 C 300 370, 600 300, 900 338.8068" stroke="#ffffff" stroke-opacity=".04" stroke-width="3" fill="none"/><path d="M0 440.2823 C 300 480, 600 410, 900 460.4978" stroke="#ffffff" stroke-opacity=".04" stroke-width="3" fill="none"/><path d="M0 556.6264 C 300 590, 600 520, 900 559.5883" stroke="#ffffff" stroke-opacity=".04" stroke-width="3" fill="none"/><path d="M0 665.3295 C 300 700, 600 630, 900 672.8337" stroke="#ffffff" stroke-opacity=".04" stroke-width="3" fill="none"/><path d="M0 774.4088 C 300 810, 600 740, 900 772.2761" stroke="#ffffff" stroke-opacity=".04" stroke-width="3" fill="none"/><path d="M0 888.8782 C 300 920, 600 850, 900 895.387" stroke="#ffffff" stroke-opacity=".04" stroke-width="3" fill="none"/><ellipse cx="460" cy="470" rx="350" ry="350" fill="#000" opacity=".35"/><circle cx="450" cy="450" r="340" fill="url(#p)"/><circle cx="450" cy="450" r="250" fill="none" stroke="#000" stroke-opacity=".05" stroke-width="4"/><path d="M310.3732 520 Q 330 332.36 470 330 Q 600 340 590 480 Q 570 600 450 600 Q 330 600 317.6924 520Z" fill="url(#f)"/><path d="M360 470 Q 450 420 560 470" stroke="#000" stroke-opacity=".25" stroke-width="10" stroke-linecap="round" fill="none"/><circle cx="409.824" cy="361.6288" r="16.56252" fill="#e85d3a" opacity=".95"/><circle cx="520.3008" cy="554.2688" r="6.56424" fill="#e85d3a" opacity=".95"/><circle cx="526.2172" cy="378.7032" r="17.5128" fill="#e85d3a" opacity=".95"/><circle cx="523.8736" cy="463.7364" r="15.32568" fill="#e85d3a" opacity=".95"/><circle cx="447.8172" cy="426.86879999999996" r="11.0652" fill="#e85d3a" opacity=".95"/><circle cx="479.712" cy="432.5444" r="12.5724" fill="#e85d3a" opacity=".95"/><circle cx="502.49559999999997" cy="595.3728000000001" r="7.605" fill="#e85d3a" opacity=".95"/><circle cx="579.798" cy="515.0772" r="15.57156" fill="#e85d3a" opacity=".95"/><circle cx="445.5408" cy="596.0616" r="12.311879999999999" fill="#e85d3a" opacity=".95"/><circle cx="609.1272" cy="627.4548" r="4.19492" fill="#fff" opacity=".8"/><circle cx="621.3924" cy="333.7488" r="3.3653899999999997" fill="#fff" opacity=".8"/><circle cx="389.844" cy="621.7776" r="2.12183" fill="#fff" opacity=".8"/><circle cx="298.6092" cy="359.298" r="2.27576" fill="#7aa15a" opacity=".8"/><circle cx="514.1304" cy="625.9464" r="2.42945" fill="#fff" opacity=".8"/><circle cx="556.8084" cy="504.6624" r="3.46163" fill="#fff" opacity=".8"/><circle cx="561.9888000000001" cy="514.6812" r="3.06638" fill="#fff" opacity=".8"/><circle cx="333.396" cy="323.2728" r="3.23696" fill="#7aa15a" opacity=".8"/><circle cx="327.852" cy="311.1696" r="4.16714" fill="#fff" opacity=".8"/><circle cx="623.7144000000001" cy="366.8508" r="3.52094" fill="#e85d3a" opacity=".8"/><circle cx="286.434" cy="382.9248" r="2.84603" fill="#7aa15a" opacity=".8"/><circle cx="574.1315999999999" cy="376.4448" r="4.4891000000000005" fill="#7aa15a" opacity=".8"/><circle cx="287.7444" cy="438.49800000000005" r="2.80526" fill="#fff" opacity=".8"/><circle cx="384.3504" cy="422.9856" r="2.04629" fill="#7aa15a" opacity=".8"/></svg>
