<svg xmlns="http://www.w3.org/2000/svg" viewBox="0 0 1000 1000" width="1000" height="1000"><defs><linearGradient id="m" x1="0" y1="0" x2="1" y2="1"><stop offset="0" stop-color="#ffe2d6"/><stop offset=".45" stop-color="#e3a089"/><stop offset=".7" stop-color="#9a5a46"/><stop offset="1" stop-color="#e3a089"/></linearGradient>
    <linearGradient id="g" x1="0" y1="0" x2="1" y2="1"><stop offset="0" stop-color="#ffd0d8"/><stop offset=".5" stop-color="#d12a4a"/><stop offset="1" stop-color="#6b0f22"/></linearGradient>
    <radialGradient id="bg" cx=".5" cy=".4" r=".8"><stop offset="0" stop-color="#fbf8f4"/><stop offset="1" stop-color="#e7e0d6"/></radialGradient></defs><rect width="1000" height="1000" fill="url(#bg)"/><ellipse cx="500" cy="800" rx="270" ry="40" fill="#000" opacity=".12"/><ellipse cx="500" cy="590" rx="250" ry="200" fill="none" stroke="url(#m)" stroke-width="54"/><ellipse cx="500" cy="590" rx="250" ry="200" fill="none" stroke="#fff" stroke-opacity=".35" stroke-width="6" stroke-dasharray="160 900"/><path d="M430 400 L570 400 L590 360 L410 360Z" fill="url(#m)"/><polygon points="500,170 615,260 580,380 420,380 385,260" fill="url(#g)"/><polygon points="500,170 545,260 500,380 455,260" fill="#fff" opacity=".25"/><path d="M385 260 H615 M455 260 L500 170 L545 260 M420 380 L455 260 M580 380 L545 260" stroke="#fff" stroke-opacity=".45" stroke-width="3" fill="none"/><circle cx="470" cy="230" r="10" fill="#fff" opacity=".9"/><circle cx="560" cy="300" r="5" fill="#fff" opacity=".7"/></svg>
