<svg xmlns="http://www.w3.org/2000/svg" viewBox="0 0 1200 760" width="1200" height="760"><defs></defs><rect width="1200" height="760" rx="24" fill="#14141c"/><rect x="0" y="0" width="1200" height="48" rx="24" fill="#1d1d27"/><circle cx="30" cy="24" r="7" fill="#ff6b5e"/><circle cx="52" cy="24" r="7" fill="#ffbd2e"/><circle cx="74" cy="24" r="7" fill="#28c840"/><rect x="0" y="48" width="220" height="712" fill="#181822"/><rect x="28" y="84" width="138.01" height="12" rx="6" fill="#2c2c3a"/><rect x="28" y="128" width="120.3091" height="12" rx="6" fill="#7c5cff"/><rect x="28" y="172" width="152.6085" height="12" rx="6" fill="#2c2c3a"/><rect x="28" y="216" width="154.5629" height="12" rx="6" fill="#2c2c3a"/><rect x="28" y="260" width="120.9524" height="12" rx="6" fill="#2c2c3a"/><rect x="28" y="304" width="148.4799" height="12" rx="6" fill="#2c2c3a"/><rect x="28" y="348" width="126.0253" height="12" rx="6" fill="#2c2c3a"/><rect x="252" y="80" width="290" height="120" rx="14" fill="#1d1d27"/><rect x="272" y="104" width="90" height="10" rx="5" fill="#3a3a4c"/><rect x="272" y="132" width="161.7792" height="26" rx="6" fill="#7c5cff" opacity="1"/><rect x="562" y="80" width="290" height="120" rx="14" fill="#1d1d27"/><rect x="582" y="104" width="90" height="10" rx="5" fill="#3a3a4c"/><rect x="582" y="132" width="138.772" height="26" rx="6" fill="#e8e8f0" opacity="0.85"/><rect x="872" y="80" width="290" height="120" rx="14" fill="#1d1d27"/><rect x="892" y="104" width="90" height="10" rx="5" fill="#3a3a4c"/><rect x="892" y="132" width="190.9552" height="26" rx="6" fill="#e8e8f0" opacity="0.85"/><rect x="252" y="224" width="910" height="500" rx="14" fill="#1d1d27"/><path d="M280 680 L280 514.531 L352 380.557 L424 470.31399999999996 L496 594.745 L568 562.636 L640 585.577 L712 638.461 L784 557.581 L856 565.177 L928 434.47900000000004 L1000 544.888 L1072 579.442 L1144 426.904" fill="none" stroke="#7c5cff" stroke-width="5" stroke-linejoin="round"/><rect x="296" y="690" width="30" height="22.9363" rx="4" fill="#7c5cff" opacity=".35" transform="translate(0 -0)"/><rect x="368" y="690" width="30" height="22.9945" rx="4" fill="#7c5cff" opacity=".35" transform="translate(0 -0)"/><rect x="440" y="690" width="30" height="26.973399999999998" rx="4" fill="#7c5cff" opacity=".35" transform="translate(0 -0)"/><rect x="512" y="690" width="30" height="21.1612" rx="4" fill="#7c5cff" opacity=".35" transform="translate(0 -0)"/><rect x="584" y="690" width="30" height="33.564099999999996" rx="4" fill="#7c5cff" opacity=".35" transform="translate(0 -0)"/><rect x="656" y="690" width="30" height="29.3971" rx="4" fill="#7c5cff" opacity=".35" transform="translate(0 -0)"/><rect x="728" y="690" width="30" height="10.3201" rx="4" fill="#7c5cff" opacity=".35" transform="translate(0 -0)"/><rect x="800" y="690" width="30" height="31.888" rx="4" fill="#7c5cff" opacity=".35" transform="translate(0 -0)"/><rect x="872" y="690" width="30" height="13.5031" rx="4" fill="#7c5cff" opacity=".35" transform="translate(0 -0)"/><rect x="944" y="690" width="30" height="26.952099999999998" rx="4" fill="#7c5cff" opacity=".35" transform="translate(0 -0)"/><rect x="1016" y="690" width="30" height="35.599" rx="4" fill="#7c5cff" opacity=".35" transform="translate(0 -0)"/><rect x="1088" y="690" width="30" height="25.2349" rx="4" fill="#7c5cff" opacity=".35" transform="translate(0 -0)"/></svg>
