<svg xmlns="http://www.w3.org/2000/svg" viewBox="0 0 1200 760" width="1200" height="760"><defs></defs><rect width="1200" height="760" rx="24" fill="#14141c"/><rect x="0" y="0" width="1200" height="48" rx="24" fill="#1d1d27"/><circle cx="30" cy="24" r="7" fill="#ff6b5e"/><circle cx="52" cy="24" r="7" fill="#ffbd2e"/><circle cx="74" cy="24" r="7" fill="#28c840"/><rect x="0" y="48" width="220" height="712" fill="#181822"/><rect x="28" y="84" width="132.4436" height="12" rx="6" fill="#2c2c3a"/><rect x="28" y="128" width="103.5868" height="12" rx="6" fill="#e36b4a"/><rect x="28" y="172" width="111.0866" height="12" rx="6" fill="#2c2c3a"/><rect x="28" y="216" width="130.6936" height="12" rx="6" fill="#2c2c3a"/><rect x="28" y="260" width="166.6421" height="12" rx="6" fill="#2c2c3a"/><rect x="28" y="304" width="160.4891" height="12" rx="6" fill="#2c2c3a"/><rect x="28" y="348" width="107.8071" height="12" rx="6" fill="#2c2c3a"/><rect x="252" y="80" width="290" height="120" rx="14" fill="#1d1d27"/><rect x="272" y="104" width="90" height="10" rx="5" fill="#3a3a4c"/><rect x="272" y="132" width="164.6736" height="26" rx="6" fill="#e36b4a" opacity="1"/><rect x="562" y="80" width="290" height="120" rx="14" fill="#1d1d27"/><rect x="582" y="104" width="90" height="10" rx="5" fill="#3a3a4c"/><rect x="582" y="132" width="169.02" height="26" rx="6" fill="#e8e8f0" opacity="0.85"/><rect x="872" y="80" width="290" height="120" rx="14" fill="#1d1d27"/><rect x="892" y="104" width="90" height="10" rx="5" fill="#3a3a4c"/><rect x="892" y="132" width="177.1592" height="26" rx="6" fill="#e8e8f0" opacity="0.85"/><rect x="252" y="224" width="910" height="500" rx="14" fill="#1d1d27"/><path d="M280 680 L280 589.429 L352 444.922 L424 550.735 L496 393.991 L568 423.241 L640 378.457 L712 352.213 L784 607.396 L856 587.932 L928 547.489 L1000 507.799 L1072 453.52599999999995 L1144 492.82" fill="none" stroke="#e36b4a" stroke-width="5" stroke-linejoin="round"/><rect x="296" y="690" width="30" height="33.457" rx="4" fill="#e36b4a" opacity=".35" transform="translate(0 -0)"/><rect x="368" y="690" width="30" height="26.3191" rx="4" fill="#e36b4a" opacity=".35" transform="translate(0 -0)"/><rect x="440" y="690" width="30" height="23.8156" rx="4" fill="#e36b4a" opacity=".35" transform="translate(0 -0)"/><rect x="512" y="690" width="30" height="29.0215" rx="4" fill="#e36b4a" opacity=".35" transform="translate(0 -0)"/><rect x="584" y="690" width="30" height="28.0414" rx="4" fill="#e36b4a" opacity=".35" transform="translate(0 -0)"/><rect x="656" y="690" width="30" height="20.8291" rx="4" fill="#e36b4a" opacity=".35" transform="translate(0 -0)"/><rect x="728" y="690" width="30" height="33.3061" rx="4" fill="#e36b4a" opacity=".35" transform="translate(0 -0)"/><rect x="800" y="690" width="30" height="38.314" rx="4" fill="#e36b4a" opacity=".35" transform="translate(0 -0)"/><rect x="872" y="690" width="30" height="28.2409" rx="4" fill="#e36b4a" opacity=".35" transform="translate(0 -0)"/><rect x="944" y="690" width="30" height="25.3657" rx="4" fill="#e36b4a" opacity=".35" transform="translate(0 -0)"/><rect x="1016" y="690" width="30" height="20.5657" rx="4" fill="#e36b4a" opacity=".35" transform="translate(0 -0)"/><rect x="1088" y="690" width="30" height="31.380399999999998" rx="4" fill="#e36b4a" opacity=".35" transform="translate(0 -0)"/></svg>
